<svg version="1.2" xmlns="http://www.w3.org/2000/svg" viewBox="0 0 512 512" width="512" height="512"><style>.a{fill:#fff}</style><path fill-rule="evenodd" class="a" d="m291.5 2.4c43.8 6.6 83.9 23.3 119.3 49.8 12.4 9.3 34.1 30.4 44.5 43.3 32 39.7 50.7 86.1 55.8 138.5 1.4 14.7 0.7 42.8-1.5 57.5-11 74.4-51.3 137.7-114.2 179.1-34.1 22.5-74.1 36.3-117.4 40.5-14.7 1.4-42.8 0.7-57.5-1.5-74.4-11-137.7-51.3-179.1-114.2-22.5-34.1-36.3-74.1-40.5-117.4-1.4-14.7-0.7-42.8 1.5-57.5 6.4-43.5 23.3-83.9 49.8-119.3 9.3-12.4 30.4-34.1 43.3-44.5 38.1-30.7 85.3-50.1 135.5-55.6 11.8-1.3 48.4-0.5 60.5 1.3zm-32.9 122.9c-0.3-0.4-126.6 220.4-126.6 221.2 0 0.3 56.9 0.5 126.5 0.5 69.6 0 126.5-0.2 126.5-0.4 0-0.2-28.4-50-63.1-110.7-34.6-60.7-63.2-110.5-63.3-110.6z"/></svg>